# xmcd
#
# Track frame offsets:
#	150
#	29810
#	55532
#	87772
#	117797
#	141420
#	168657
#
# Disc length: 2522 seconds
#
# Revision: 1
# Processed by: cddbd v1.5.1PL0 Copyright (c) Steve Scherf et al.
# Submitted via: audiograbber 1.83.01
#
DISCID=5c09d807
DTITLE=Tony Remy's Blue Vibe - Street Guitar
DYEAR=2001
DGENRE=Blues
TTITLE0=Don't Mess!
TTITLE1=Keep Your Heart Beating
TTITLE2=Cruise Control
TTITLE3=Over To You, Mr. Beck
TTITLE4=E Jam Blues
TTITLE5=Cjun Chicken
TTITLE6=Firefly
EXTD=Produced By Tony Remy\nDistributed by Bluetoneum, a Subsidiary of Alltone 
EXTD=Records Ltd, London, England
EXTT0=
EXTT1=
EXTT2=
EXTT3=
EXTT4=
EXTT5=
EXTT6=
PLAYORDER=
